<svg width="32" height="33" viewBox="0 0 32 33" fill="none" xmlns="http://www.w3.org/2000/svg">
<path fill-rule="evenodd" clip-rule="evenodd" d="M31.982 7.45269C31.994 7.49669 32 7.54169 32 7.58669V14.6577C32 14.7487 31.9759 14.838 31.9303 14.9167C31.8846 14.9954 31.819 15.0606 31.74 15.1057L25.806 18.5227V25.2947C25.8059 25.3853 25.782 25.4742 25.7368 25.5527C25.6915 25.6311 25.6264 25.6963 25.548 25.7417L13.16 32.8737C13.131 32.8897 13.1 32.8997 13.07 32.9107C13.058 32.9147 13.047 32.9217 13.035 32.9257C12.9485 32.9484 12.8575 32.9484 12.771 32.9257C12.756 32.9217 12.744 32.9137 12.73 32.9087C12.702 32.8987 12.672 32.8887 12.645 32.8737L0.259001 25.7417C0.180422 25.6964 0.115126 25.6313 0.0696659 25.5529C0.0242058 25.4744 0.000179604 25.3854 0 25.2947V4.08169C0 4.03569 0.00599965 3.99069 0.0179996 3.94669C0.0219996 3.93169 0.0309993 3.91869 0.0359993 3.90369C0.0459993 3.87669 0.0550002 3.84869 0.0690002 3.82369C0.0790002 3.80669 0.0930001 3.79369 0.104 3.77769C0.119 3.75769 0.133 3.73569 0.15 3.71769C0.165 3.70269 0.184 3.69169 0.201 3.67869C0.22 3.66369 0.235999 3.64669 0.257999 3.63469L6.452 0.0686893C6.53036 0.0236835 6.61914 0 6.7095 0C6.79986 0 6.88864 0.0236835 6.967 0.0686893L13.161 3.63469C13.182 3.64769 13.2 3.66369 13.218 3.67869C13.235 3.69169 13.254 3.70269 13.268 3.71669C13.287 3.73669 13.3 3.75669 13.315 3.77769C13.326 3.79369 13.341 3.80669 13.35 3.82369C13.365 3.84869 13.373 3.87669 13.384 3.90369C13.389 3.91869 13.398 3.93169 13.401 3.94769C13.4131 3.99134 13.4195 4.03639 13.42 4.08169V17.3317L18.58 14.3597V7.58669C18.5805 7.54139 18.5869 7.49634 18.599 7.45269C18.603 7.43669 18.611 7.42269 18.617 7.40869C18.627 7.38169 18.636 7.35369 18.65 7.32869C18.66 7.31169 18.674 7.29869 18.685 7.28269C18.7 7.26269 18.713 7.24069 18.731 7.22269C18.746 7.20769 18.765 7.19769 18.781 7.18469C18.801 7.16869 18.818 7.15169 18.838 7.13969L25.033 3.57369C25.1113 3.52859 25.2001 3.50485 25.2905 3.50485C25.3809 3.50485 25.4697 3.52859 25.548 3.57369L31.742 7.13969C31.764 7.15269 31.78 7.16969 31.8 7.18369C31.816 7.19669 31.834 7.20769 31.85 7.22269C31.867 7.24069 31.88 7.26269 31.896 7.28269C31.907 7.29869 31.921 7.31269 31.93 7.32869C31.945 7.35369 31.954 7.38169 31.964 7.40869C31.97 7.42369 31.978 7.43669 31.982 7.45269V7.45269ZM30.968 14.3597V8.47969L28.8 9.72769L25.806 11.4517V17.3317L30.968 14.3597ZM24.774 24.9967V19.1127L21.829 20.7947L13.419 25.5947V31.5347L24.774 24.9967ZM1.032 4.97469V24.9967L12.387 31.5337V25.5957L6.455 22.2387L6.453 22.2367L6.45 22.2357C6.43 22.2237 6.414 22.2077 6.395 22.1927C6.379 22.1807 6.36 22.1697 6.346 22.1557L6.345 22.1537C6.328 22.1377 6.316 22.1177 6.302 22.0997C6.289 22.0827 6.274 22.0677 6.264 22.0497L6.263 22.0477C6.251 22.0277 6.244 22.0047 6.236 21.9827C6.227 21.9637 6.216 21.9457 6.211 21.9247C6.205 21.8997 6.204 21.8747 6.201 21.8487C6.198 21.8287 6.193 21.8107 6.193 21.7907V7.94569L3.2 6.22169L1.032 4.97469ZM6.71 1.11169L1.55 4.08169L6.709 7.05169L11.869 4.08169L6.709 1.11169H6.71ZM9.394 19.6487L12.387 17.9257V4.97469L10.22 6.22169L7.226 7.94569V20.8967L9.394 19.6487V19.6487ZM25.29 4.61669L20.13 7.58669L25.29 10.5567L30.448 7.58669L25.29 4.61669V4.61669ZM24.773 11.4517L21.779 9.72769L19.612 8.47969V14.3597L22.605 16.0827L24.773 17.3317V11.4517ZM12.901 24.7017L20.469 20.3817L24.252 18.2217L19.096 15.2537L13.16 18.6717L7.75 21.7867L12.901 24.7017Z" fill="black"/>
</svg>
